<svg xmlns="http://www.w3.org/2000/svg" version="1.0" width="512.000000pt" height="512.000000pt" viewBox="0 0 512.000000 512.000000" preserveAspectRatio="xMidYMid meet" style="&#10;    fill: red;&#10;">
<metadata>
</metadata>
<g transform="translate(0.000000,512.000000) scale(0.100000,-0.100000)" fill="#000000" stroke="none">
<path d="M3120 4301 c-118 -38 -202 -93 -274 -180 -52 -62 -72 -99 -100 -183 -24 -72 -26 -89 -26 -275 -1 -314 -21 -395 -124 -499 -66 -65 -136 -100 -231 -114 -42 -6 -350 -10 -758 -10 -806 0 -727 13 -727 -124 0 -326 194 -687 471 -876 37 -25 79 -62 94 -82 48 -63 196 -205 280 -268 75 -57 250 -153 323 -178 l32 -11 0 -270 c0 -264 0 -271 -20 -271 -55 0 -83 -97 -40 -140 19 -19 33 -20 220 -20 187 0 201 1 220 20 27 27 27 93 0 120 -17 17 -33 20 -120 20 l-100 0 0 251 c0 235 1 251 18 244 27 -12 340 -18 405 -7 l57 9 0 -249 c0 -241 -1 -248 -20 -248 -33 0 -60 -35 -60 -80 0 -27 7 -47 20 -60 19 -19 33 -20 220 -20 187 0 201 1 220 20 27 27 27 93 0 120 -17 17 -33 20 -120 20 l-100 0 0 268 0 268 58 18 c87 28 264 122 355 189 277 205 472 521 531 862 12 70 16 167 16 443 l0 352 180 0 c167 0 181 1 200 20 29 29 27 94 -4 123 -13 12 -103 85 -200 162 -157 125 -176 143 -176 170 0 45 -52 185 -87 236 -73 106 -168 179 -287 221 -69 24 -96 28 -186 27 -73 0 -122 -6 -160 -18z m320 -182 c126 -59 210 -174 230 -318 6 -40 14 -79 18 -86 4 -7 58 -54 121 -104 l113 -91 -101 0 c-152 0 -141 28 -141 -357 -1 -487 -20 -639 -104 -834 -107 -249 -325 -479 -571 -602 -150 -75 -340 -118 -519 -118 -180 0 -322 33 -480 112 -66 34 -196 114 -196 122 0 1 66 1 146 -2 208 -5 346 21 521 100 143 64 354 231 368 291 14 56 -46 117 -101 104 -13 -4 -59 -38 -102 -77 -323 -297 -804 -334 -1170 -92 -218 145 -382 404 -417 661 l-7 52 687 0 686 0 76 25 c172 58 295 179 355 349 27 78 28 88 28 281 1 305 20 391 111 490 84 91 171 126 304 122 71 -2 101 -8 145 -28z" style="&#10;    fill: white;&#10;"/>
<path d="M3175 3901 c-83 -38 -135 -120 -135 -211 0 -63 23 -90 78 -90 51 0 68 15 89 80 20 62 51 82 101 64 21 -7 31 -21 45 -64 21 -65 38 -80 89 -80 56 0 78 27 78 93 -1 91 -58 176 -142 211 -52 22 -153 20 -203 -3z" style="&#10;    fill: white;&#10;"/>
</g>
</svg>

