<svg clip-rule="evenodd" fill-rule="evenodd" height="512" image-rendering="optimizeQuality" shape-rendering="geometricPrecision" text-rendering="geometricPrecision" viewBox="0 0 512 512" width="512" xmlns="http://www.w3.org/2000/svg"><g id="Layer_x0020_1"><g id="_422800096"><g><path d="m118 512c-16 0-34-1-54-4-1 0-24-5-34-24-7-13-7-29 0-47 0-2 1-3 3-4 1 0 89-49 112-96 3-11 39-141 71-183 3-16 12-56 9-72 0-2 1-4 2-5 1-2 3-3 5-3h183c4 0 7 3 7 7v6 34c18 9 81 44 62 102-20 64-73 83-77 85-3 1-28 11-60 36-32 23-78 64-116 129-2 3-24 39-113 39zm-52-18c66 9 105 0 125-8 22-9 28-20 28-20 39-67 87-110 120-134 35-26 62-37 63-37s13-5 27-16c20-15 34-35 41-60 17-50-42-80-55-86-7-2-7-10-7-22-1-8 0-16 0-23h-168c0 25-11 69-11 71 0 1-1 2-1 2-31 40-70 179-70 180 0 0 0 1-1 1-21 48-100 94-115 102-5 13-5 24 0 33 7 13 22 17 24 17z"/></g><g><path d="m420 301c-2 0-4-1-5-2-14-17-22-40-22-64 0-39 22-74 57-92 4-2 8 0 9 3 2 4 1 8-3 9-30 16-49 46-49 80 0 21 7 40 19 55 2 3 2 7-1 10-2 1-3 1-5 1z"/></g><g><path d="m201 496c-2 0-5-1-6-4-21-44-64-73-112-76-4 0-7-3-7-7s4-7 8-7c26 2 52 11 74 26 21 15 39 35 50 58 1 4 0 8-4 10-1 0-2 0-3 0z"/></g><g><path d="m415 88c-4 0-7-3-7-7v-67h-169v67c0 4-3 7-7 7s-7-3-7-7v-74c0-4 3-7 7-7h183c4 0 7 3 7 7v74c0 4-3 7-7 7z"/></g></g></g></svg>